<svg width="21" height="16" viewBox="0 0 21 16" fill="none" xmlns="http://www.w3.org/2000/svg">
<path d="M3.36146 9.10833C5.78743 9.10833 7.47143 6.91041 7.47143 5.11238C7.47143 3.77099 6.24406 3.20006 5.04547 3.20006C2.39038 3.20006 0.935497 5.57036 0.935497 7.19601C0.935497 8.5374 2.19137 9.10833 3.36146 9.10833ZM9.86943 9.10833C12.2954 9.10833 13.9794 6.91041 13.9794 5.11238C13.9794 3.77099 12.7235 3.20006 11.5247 3.20006C8.87038 3.20006 7.41496 5.56902 7.41496 7.19601C7.41496 8.5374 8.69934 9.10833 9.86943 9.10833ZM17.3186 8.99403H19.345L20.9999 0.917969H18.9451L18.4597 3.31543L17.6034 3.22991C15.6056 3.22991 13.7791 5.79841 13.7791 7.62521C13.7791 8.36717 14.2631 9.1094 15.0919 9.1094C16.262 9.1094 17.0898 8.53848 17.4316 7.96755H17.5456L17.3186 8.99403ZM10.982 13.2468C9.38694 14.5684 7.33828 15.2137 5.27378 15.0448C2.56222 14.8735 0.621393 12.7899 0.279053 10.5923H0.393076C1.02101 11.9638 2.53371 13.2468 4.38902 13.4463C6.27149 13.6747 8.5275 12.8187 9.7546 11.6483L8.3847 10.5923H12.5232L11.6088 14.9878L11.0094 13.2753L10.982 13.2468Z" fill="white"/>
</svg>
