<svg width="19" height="19" viewBox="0 0 19 19" fill="none" xmlns="http://www.w3.org/2000/svg">
<path d="M9.50206 5.261C6.94756 5.261 4.88709 7.32147 4.88709 9.87598C4.88709 12.4305 6.94756 14.4909 9.50206 14.4909C12.0566 14.4909 14.117 12.4305 14.117 9.87598C14.117 7.32147 12.0566 5.261 9.50206 5.261ZM9.50206 12.8763C7.85128 12.8763 6.50173 11.5308 6.50173 9.87598C6.50173 8.22117 7.84726 6.87564 9.50206 6.87564C11.1569 6.87564 12.5024 8.22117 12.5024 9.87598C12.5024 11.5308 11.1529 12.8763 9.50206 12.8763ZM15.3822 5.07223C15.3822 5.67069 14.9003 6.14865 14.3058 6.14865C13.7074 6.14865 13.2294 5.66667 13.2294 5.07223C13.2294 4.47778 13.7114 3.9958 14.3058 3.9958C14.9003 3.9958 15.3822 4.47778 15.3822 5.07223ZM18.4388 6.16472C18.3705 4.72279 18.0412 3.44554 16.9848 2.39321C15.9325 1.34089 14.6552 1.01153 13.2133 0.939237C11.7272 0.85489 7.2729 0.85489 5.78679 0.939237C4.34888 1.00752 3.07163 1.33687 2.01528 2.3892C0.958942 3.44152 0.633604 4.71877 0.561307 6.1607C0.47696 7.64681 0.47696 12.1011 0.561307 13.5872C0.629588 15.0292 0.958942 16.3064 2.01528 17.3587C3.07163 18.4111 4.34486 18.7404 5.78679 18.8127C7.2729 18.8971 11.7272 18.8971 13.2133 18.8127C14.6552 18.7444 15.9325 18.4151 16.9848 17.3587C18.0372 16.3064 18.3665 15.0292 18.4388 13.5872C18.5232 12.1011 18.5232 7.65083 18.4388 6.16472ZM16.5189 15.1818C16.2056 15.969 15.5991 16.5755 14.8079 16.8928C13.623 17.3628 10.8114 17.2543 9.50206 17.2543C8.19268 17.2543 5.37711 17.3587 4.19625 16.8928C3.40901 16.5795 2.80252 15.973 2.48522 15.1818C2.01528 13.9969 2.12373 11.1854 2.12373 9.87598C2.12373 8.56659 2.0193 5.75102 2.48522 4.57016C2.7985 3.78293 3.405 3.17643 4.19625 2.85913C5.38112 2.3892 8.19268 2.49764 9.50206 2.49764C10.8114 2.49764 13.627 2.39321 14.8079 2.85913C15.5951 3.17242 16.2016 3.77891 16.5189 4.57016C16.9888 5.75503 16.8804 8.56659 16.8804 9.87598C16.8804 11.1854 16.9888 14.0009 16.5189 15.1818Z" fill="#F59A1B"/>
</svg>
